# xmcd
#
# Track frame offsets:
#	150
#	9159
#	30821
#	55168
#	86491
#	129358
#	166997
#	189331
#	197510
#	215596
#	238916
#	274982
#	290186
#	300839
#
# Disc length: 4346 seconds
#
# Revision: 2
# Processed by: cddbd v1.4PL0 Copyright (c) Steve Scherf et al.
# Submitted via: EZCDDA 4.3.2
#
DISCID=b510f80e
DTITLE=john mayall - the turning point
DYEAR=1900
DGENRE=
TTITLE0=the laws must change (a few personal observations of police vs youth a
TTITLE0=nd the drug situation)
TTITLE1=saw mill gulch road (the story of an innocent encounter one night in m
TTITLE1=onterey,california)
TTITLE2=i'm gonna fight for you J.B. (fondly dedicated to the late j.b. lenoir
TTITLE2=whose talent has yet to be be acknowleged)
TTITLE3=so hard to share (patricia and a possessive 'old man' who stood in our
TTITLE3=way)
TTITLE4=california (improvisations and moods on the theme of homesickness)
TTITLE5=thoughts about roxanne (memories of my love and friendship for a speci
TTITLE5=al girl in L.A.)
TTITLE6=room to move (a musician's need for personal freedom to love without e
TTITLE6=ntanglement)
TTITLE7=Piste 8
TTITLE8=Piste 9
TTITLE9=Piste 10
TTITLE10=Piste 11
TTITLE11=Piste 12
TTITLE12=Piste 13
TTITLE13=Piste 14
EXTD=
EXTT0=
EXTT1=
EXTT2=
EXTT3=
EXTT4=
EXTT5=
EXTT6=
EXTT7=
EXTT8=
EXTT9=
EXTT10=
EXTT11=
EXTT12=
EXTT13=
PLAYORDER=
